<svg width="128" height="128" viewBox="0 0 128 128" fill="none" xmlns="http://www.w3.org/2000/svg">
<g clip-path="url(#clip0_12_967)">
<g clip-path="url(#clip1_12_967)">
<path d="M126.6 63.9999C126.6 98.5999 98.5999 126.6 63.9999 126.6C29.3999 126.6 1.3999 98.5999 1.3999 63.9999C1.3999 29.3999 29.3999 1.3999 63.9999 1.3999C98.5999 1.3999 126.6 29.3999 126.6 63.9999ZM63.9999 5.1999C31.3999 5.1999 5.1999 31.3999 5.1999 63.9999C5.1999 96.5999 31.5999 122.8 63.9999 122.8C96.5999 122.8 122.8 96.3999 122.8 63.9999C122.8 31.3999 96.5999 5.1999 63.9999 5.1999Z" fill="url(#paint0_linear_12_967)"/>
<path d="M64.0002 5.2002C31.4002 5.2002 5.2002 31.4002 5.2002 64.0002C5.2002 96.6002 31.6002 122.8 64.0002 122.8C96.6002 122.8 122.8 96.4002 122.8 64.0002C122.8 31.4002 96.6002 5.2002 64.0002 5.2002ZM64.0002 119C33.6002 119 9.0002 94.4002 9.0002 64.0002C9.0002 33.6002 33.6002 9.0002 64.0002 9.0002C94.4002 9.0002 119 33.6002 119 64.0002C119 94.4002 94.4002 119 64.0002 119Z" fill="url(#paint1_linear_12_967)"/>
<path opacity="0.4" d="M64 126.6C98.6 126.6 126.6 98.6 126.6 64C126.6 29.4 98.6 1.4 64 1.4C29.4 1.4 1.4 29.4 1.4 64C1.4 98.6 29.4 126.6 64 126.6ZM64 0C99.2 0 128 28.8 128 64C128 99.2 99.2 128 64 128C28.8 128 0 99.2 0 64C0 28.8 28.8 0 64 0Z" fill="url(#paint2_linear_12_967)"/>
<path d="M4.3999 64.1999C4.3999 31.3999 30.9999 4.3999 63.9999 4.3999C96.9999 4.3999 123.6 31.1999 123.6 64.1999C123.6 96.9999 96.9999 123.6 63.9999 123.6C30.9999 123.6 4.3999 96.9999 4.3999 64.1999ZM22.9999 22.9999C12.3999 33.5999 5.7999 48.1999 5.7999 64.1999C5.7999 80.1999 12.3999 94.7999 22.7999 105.2C33.3999 115.6 47.9999 122.2 63.9999 122.2C79.9999 122.2 94.5999 115.8 105 105.2C115.6 94.7999 122 80.1999 122 64.1999C122 48.1999 115.4 33.5999 105 22.9999C94.5999 12.3999 79.9999 5.7999 63.9999 5.7999C47.9999 5.7999 33.3999 12.3999 22.9999 22.9999Z" fill="white"/>
<path opacity="0.4" d="M63.9998 119.2C49.1998 119.2 35.3998 113.4 24.9998 103C14.5998 92.5998 8.7998 78.7998 8.7998 63.9998C8.7998 49.1998 14.5998 35.3998 24.9998 24.9998C35.3998 14.5998 49.1998 8.7998 63.9998 8.7998C78.7998 8.7998 92.5998 14.5998 103 24.9998C113.4 35.3998 119.2 49.1998 119.2 63.9998C119.2 78.7998 113.4 92.5998 103 103C92.5998 113.4 78.7998 119.2 63.9998 119.2ZM63.9998 117.6C78.1998 117.6 91.7998 112 101.8 102C112 91.7998 117.4 78.3998 117.4 64.1998C117.4 49.9998 111.8 36.3998 101.8 26.3998C91.5998 16.1998 78.1998 10.7998 63.9998 10.7998C49.7998 10.7998 36.1998 16.3998 26.1998 26.3998C15.9998 36.1998 10.3998 49.7998 10.3998 63.9998C10.3998 78.1998 15.9998 91.7998 25.9998 101.8C36.1998 112 49.7998 117.6 63.9998 117.6Z" fill="url(#paint3_linear_12_967)"/>
<path d="M112.6 90.0002C111.6 89.2002 73.0001 58.6002 73.0001 58.6002L64.0001 7.2002C63.4001 7.4002 62.6001 8.0002 62.2001 8.8002L55.8001 58.8002L16.0001 89.4002C16.0001 89.4002 15.2001 90.4002 14.8001 91.0002C14.6001 91.4002 14.6001 92.0002 14.6001 92.6002L63.8001 72.4002L113 92.6002C113.4 91.6002 113 90.6002 112.6 90.0002Z" fill="white"/>
<path d="M64.4 65.6002L64 74.8002L109.2 93.0002C110.8 93.8002 112 93.4002 113.2 92.6002L65 65.4002C64.8 65.2002 64.4 65.4002 64.4 65.6002Z" fill="#565F64"/>
<path d="M64.3999 65.6002C64.3999 65.6002 66.9999 70.2002 69.9999 73.4002C74.1999 78.0002 79.7999 81.2002 79.7999 81.2002L109.2 93.0002C110.8 93.8002 112 93.4002 113.2 92.6002L64.9999 65.4002C64.7999 65.2002 64.3999 65.4002 64.3999 65.6002Z" fill="url(#paint4_linear_12_967)"/>
<path d="M113 90.7998C113 90.5998 112.8 90.3998 112.6 89.9998L71.3998 59.7998L65.7998 63.3998C65.7998 63.3998 66.1998 63.5998 66.3998 63.3998C66.9998 63.1998 68.1998 62.9998 69.3998 63.3998C70.3998 63.7998 113 90.9998 113 90.7998C113 90.9998 113 90.9998 113 90.7998Z" fill="#A4AAAE" fill-opacity="0.6"/>
<path d="M111.6 89.0001L73.1999 58.6001L71.3999 59.8001L112.6 90.2001C112.4 89.8001 112 89.4001 111.6 89.0001Z" fill="#333E46"/>
<path d="M64.9998 62.5999L64.7998 62.7999C64.7998 62.7999 64.7998 63.1999 65.1998 62.9999C65.3998 62.7999 71.1998 59.7999 73.1998 58.5999L66.1998 10.5999C65.9998 8.7999 65.1998 7.9999 63.7998 7.3999L64.5998 62.9999L64.9998 62.5999Z" fill="#565F64"/>
<path d="M61.5998 10.5999V13.1999L57.1998 57.3999C57.1998 57.9999 57.3998 58.5999 57.9998 58.9999L60.5998 60.9999L62.3998 12.1999L62.5998 8.3999C61.9998 8.7999 61.7998 9.5999 61.5998 10.5999ZM59.1998 61.7999L56.7998 59.7999L16.1998 89.1999C16.1998 89.1999 14.9998 89.9999 14.7998 90.7999L16.1998 89.9999L58.7998 63.1999C59.5998 62.7999 59.7998 62.3999 59.1998 61.7999Z" fill="#A4AAAE" fill-opacity="0.6"/>
<path d="M63.4001 65.6002C63.4001 65.4002 63.2001 65.2002 63.0001 65.4002L14.6001 92.8002C15.8001 93.6002 17.0001 93.8002 18.6001 93.2002L63.8001 75.0002L63.4001 65.6002Z" fill="#565F64"/>
<path d="M64.7998 62.7998C64.7998 62.7998 64.7998 62.9998 64.9998 62.9998H65.1998C65.3998 62.7998 71.1998 59.7998 73.1998 58.5998L72.3998 52.7998L66.1998 10.5998C66.1998 9.7998 65.9998 9.1998 65.5998 8.7998C65.5998 8.7998 68.5998 49.1998 68.5998 53.5998C68.5998 59.3998 64.7998 62.7998 64.7998 62.7998Z" fill="url(#paint5_linear_12_967)"/>
<path d="M63.4001 65.6002C63.4001 65.4002 63.2001 65.2002 63.0001 65.4002L14.6001 92.8002C15.8001 93.6002 17.0001 93.8002 18.6001 93.2002L63.8001 75.0002L63.4001 65.6002Z" fill="url(#paint6_linear_12_967)" fill-opacity="0.8"/>
<path opacity="0.8" d="M18.5999 93L63.7999 74.8L63.3999 66C62.5999 68.4 61.1999 71 57.3999 73C54.5999 74.6 27.7999 87.8 18.1999 92.4C17.5999 92.8 16.7999 93 16.3999 93.2C17.1999 93.6 17.7999 93.4 18.5999 93Z" fill="url(#paint7_linear_12_967)"/>
<path d="M64.9998 62.5999L64.7998 62.7999C64.7998 62.7999 64.7998 63.1999 65.1998 62.9999C65.3998 62.7999 71.1998 59.7999 73.1998 58.5999L66.1998 10.5999C65.9998 8.7999 65.1998 7.9999 63.7998 7.3999L64.5998 62.9999L64.9998 62.5999Z" fill="url(#paint8_linear_12_967)"/>
<path d="M64.9998 62.5999L64.7998 62.7999C64.7998 62.7999 64.7998 63.1999 65.1998 62.9999C65.3998 62.7999 71.1998 59.7999 73.1998 58.5999L66.1998 10.5999C65.9998 8.7999 65.1998 7.9999 63.7998 7.3999L64.5998 62.9999L64.9998 62.5999Z" fill="url(#paint9_linear_12_967)"/>
<path d="M10.1999 88.8C8.7999 85.6 0.799903 70 9.5999 40H6.1999C4.3999 46 2.9999 49.6 2.1999 55C2.1999 55 1.7999 57 1.5999 59.2C1.3999 61.4 1.3999 62.6 1.3999 64C1.3999 76 4.3999 83 4.3999 83C7.5999 93 13.1999 102 20.7999 108.8C27.3999 114.6 37.5999 119 45.9999 120.6C44.5999 120.4 20.5999 110.2 10.1999 88.8Z" fill="url(#paint10_linear_12_967)"/>
<path d="M64.8 65.2H63C63.2 65.2 63.4 65.2 63.4 65.4L63.8 74.6H64L64.4 65.4C64.4 65.2 64.6 65 64.8 65.2Z" fill="url(#paint11_linear_12_967)"/>
<path d="M84 4.6001C105 12.6001 124.8 34.6001 124.8 62.4001C124.8 96.0001 98 123.4 64 123.4V126.6C98 126.6 126.6 98.6001 126.6 64.0001C126.6 36.4001 109 13.2001 84 4.6001Z" fill="url(#paint12_linear_12_967)"/>
<path d="M117.6 40.4002C103.6 8.2002 72 6.4002 70.2 6.2002H70C94.2 10.6002 109.6 26.4002 115 43.0002V43.2002C117.4 49.6002 118.6 56.4002 118.8 63.8002C119 70.8002 117.4 78.6002 114.4 85.8002C114.2 86.8002 114 88.0002 113.8 88.0002H117C126.6 70.0002 122.4 51.8002 117.6 40.4002Z" fill="url(#paint13_linear_12_967)"/>
<path d="M4.3999 64.1999C4.3999 31.3999 30.9999 4.3999 63.9999 4.3999C96.9999 4.3999 123.6 31.1999 123.6 64.1999C123.6 96.9999 96.9999 123.6 63.9999 123.6C30.9999 123.6 4.3999 96.9999 4.3999 64.1999ZM22.9999 22.9999C12.3999 33.5999 5.7999 48.1999 5.7999 64.1999C5.7999 80.1999 12.3999 94.7999 22.7999 105.2C33.3999 115.6 47.9999 122.2 63.9999 122.2C79.9999 122.2 94.5999 115.8 105 105.2C115.6 94.7999 122 80.1999 122 64.1999C122 48.1999 115.4 33.5999 105 22.9999C94.5999 12.3999 79.9999 5.7999 63.9999 5.7999C47.9999 5.7999 33.3999 12.3999 22.9999 22.9999Z" fill="#FBFBFB"/>
<path d="M15.7998 89.5998L56.5998 60.1998C58.7998 61.3998 62.3998 62.9998 62.7998 62.9998C63.1998 63.1998 63.1998 62.7998 63.1998 62.7998L58.1998 58.5998C57.5998 58.1998 57.3998 57.5998 57.3998 56.9998L62.1998 8.7998C61.9998 8.9998 61.9998 9.3998 61.7998 9.5998C61.5998 9.9998 61.5998 10.1998 61.5998 10.5998L54.5998 58.7998L16.1998 88.9998C15.9998 89.1998 15.7998 89.3998 15.7998 89.5998Z" fill="#333F47"/>
</g>
</g>
<defs>
<linearGradient id="paint0_linear_12_967" x1="15.9959" y1="23.7959" x2="112.004" y2="104.204" gradientUnits="userSpaceOnUse">
<stop stop-color="white"/>
<stop offset="0.1" stop-color="#CDD0D0"/>
<stop offset="0.2" stop-color="#A5ACAF"/>
<stop offset="0.3" stop-color="#98A0A4"/>
<stop offset="0.4" stop-color="#828A8F"/>
<stop offset="0.5" stop-color="#667075"/>
<stop offset="0.6" stop-color="#535C63"/>
<stop offset="0.7" stop-color="#475158"/>
<stop offset="0.8" stop-color="#434D54"/>
<stop offset="1" stop-color="#475157"/>
</linearGradient>
<linearGradient id="paint1_linear_12_967" x1="18.9422" y1="26.1182" x2="108.942" y2="101.718" gradientUnits="userSpaceOnUse">
<stop stop-color="#0B1F2A"/>
<stop offset="0.2" stop-color="#333F47"/>
<stop offset="0.5" stop-color="#81898D"/>
<stop offset="0.7" stop-color="#B3B8B8"/>
<stop offset="0.8" stop-color="#DEE0DD"/>
<stop offset="1" stop-color="#FBFBFB"/>
</linearGradient>
<linearGradient id="paint2_linear_12_967" x1="85.874" y1="124.126" x2="42.074" y2="3.728" gradientUnits="userSpaceOnUse">
<stop stop-color="#E1E3E1"/>
<stop offset="0.1" stop-color="#C1C5C4"/>
<stop offset="0.3" stop-color="#9BA1A2"/>
<stop offset="0.5" stop-color="#7D8487"/>
<stop offset="0.7" stop-color="#687074" stop-opacity="0"/>
<stop offset="0.8" stop-color="#5B6469" stop-opacity="0"/>
<stop offset="1" stop-color="#576065" stop-opacity="0"/>
</linearGradient>
<linearGradient id="paint3_linear_12_967" x1="36.4018" y1="16.2018" x2="91.5978" y2="111.798" gradientUnits="userSpaceOnUse">
<stop stop-color="#E1E3E1"/>
<stop offset="0.1" stop-color="#C1C5C4"/>
<stop offset="0.3" stop-color="#9BA1A2"/>
<stop offset="0.5" stop-color="#7D8487"/>
<stop offset="0.7" stop-color="#687074" stop-opacity="0"/>
<stop offset="0.8" stop-color="#5B6469" stop-opacity="0"/>
<stop offset="1" stop-color="#576065" stop-opacity="0"/>
</linearGradient>
<linearGradient id="paint4_linear_12_967" x1="88.9759" y1="78.7862" x2="85.5759" y2="84.3862" gradientUnits="userSpaceOnUse">
<stop stop-color="#27343C"/>
<stop offset="1" stop-color="#00111E" stop-opacity="0"/>
</linearGradient>
<linearGradient id="paint5_linear_12_967" x1="79.1598" y1="58.2238" x2="73.5598" y2="49.2238" gradientUnits="userSpaceOnUse">
<stop offset="0.1" stop-color="#02131F"/>
<stop offset="0.9" stop-color="#02131F" stop-opacity="0"/>
</linearGradient>
<linearGradient id="paint6_linear_12_967" x1="63.9641" y1="72.6722" x2="55.5641" y2="75.0722" gradientUnits="userSpaceOnUse">
<stop offset="0.2" stop-color="#02131F"/>
<stop offset="0.9" stop-color="#02131F" stop-opacity="0"/>
</linearGradient>
<linearGradient id="paint7_linear_12_967" x1="41.5819" y1="83.808" x2="40.3819" y2="80.808" gradientUnits="userSpaceOnUse">
<stop stop-color="#02131F"/>
<stop offset="0.1" stop-color="#02131F"/>
<stop offset="1" stop-color="#02131F" stop-opacity="0"/>
</linearGradient>
<linearGradient id="paint8_linear_12_967" x1="71.2038" y1="34.4279" x2="64.4038" y2="35.2279" gradientUnits="userSpaceOnUse">
<stop offset="0.3" stop-color="#02131F"/>
<stop offset="0.8" stop-color="#02131F" stop-opacity="0"/>
</linearGradient>
<linearGradient id="paint9_linear_12_967" x1="71.4158" y1="34.3139" x2="66.8138" y2="34.9139" gradientUnits="userSpaceOnUse">
<stop offset="0.4" stop-color="#27343C"/>
<stop offset="1" stop-color="#3B474E" stop-opacity="0"/>
</linearGradient>
<linearGradient id="paint10_linear_12_967" x1="-0.720098" y1="65.662" x2="55.0799" y2="97.862" gradientUnits="userSpaceOnUse">
<stop stop-color="#25323B" stop-opacity="0"/>
<stop offset="0.1" stop-color="#27343C"/>
</linearGradient>
<linearGradient id="paint11_linear_12_967" x1="63.9" y1="74.8" x2="63.9" y2="65.2" gradientUnits="userSpaceOnUse">
<stop offset="0.3" stop-color="#A5ABAF"/>
<stop offset="1" stop-color="#A5ABAF" stop-opacity="0"/>
</linearGradient>
<linearGradient id="paint12_linear_12_967" x1="95.3" y1="4.6001" x2="95.3" y2="126.6" gradientUnits="userSpaceOnUse">
<stop stop-color="#6B7378"/>
<stop offset="0.2" stop-color="#333F47"/>
<stop offset="0.5" stop-color="#27343C"/>
<stop offset="0.8" stop-color="#333F47"/>
<stop offset="1" stop-color="#434D54"/>
</linearGradient>
<linearGradient id="paint13_linear_12_967" x1="114.578" y1="16.1862" x2="87.578" y2="55.7862" gradientUnits="userSpaceOnUse">
<stop offset="0.7" stop-color="#49545B"/>
<stop offset="0.8" stop-color="white" stop-opacity="0"/>
</linearGradient>
<clipPath id="clip0_12_967">
<rect width="128" height="128" fill="white"/>
</clipPath>
<clipPath id="clip1_12_967">
<rect width="128" height="128" fill="white"/>
</clipPath>
</defs>
</svg>
