<svg width="128" height="128" viewBox="0 0 128 128" fill="none" xmlns="http://www.w3.org/2000/svg">
<g clip-path="url(#clip0_12_668)">
<path d="M127.999 98.493C127.999 114.524 115.004 127.519 98.9724 127.519H29.027C12.9957 127.519 0 114.524 0 98.493V29.0264C0 12.9957 12.9957 0 29.027 0H98.973C115.004 0 128 12.9957 128 29.0264V98.493H127.999Z" fill="#EEE312" stroke="#1A1A1A" stroke-width="2.19607" stroke-linecap="round" stroke-linejoin="round"/>
<path d="M63.662 108.019C72.4067 108.019 78.9504 101.579 78.9504 101.579C79.5251 101.099 80.1789 100.639 80.1789 100.639C85.4144 97.1998 93.9012 99.6788 93.9012 99.6788C96.9851 100.409 97.0742 98.0794 97.0742 98.0794L97.312 95.4398C97.5373 92.8515 101.515 92.8791 101.515 92.8791C106.754 92.674 108.959 90.5287 109.868 89.0153C110.843 87.564 109 87.1537 109 87.1537C96.3589 83.6243 90.2256 71.6262 90.2256 71.6262C87.3701 66.6135 91.2835 64.5863 91.2835 64.5863C92.3414 63.8396 97.5228 62.1329 97.5228 62.1329C101.799 60.4181 100.378 57.4403 100.378 57.4403C98.7922 54.2396 95.0909 56.3736 95.0909 56.3736C93.3409 57.3022 92.0239 57.2263 92.0239 57.2263C89.1006 57.2821 88.7492 56.6559 88.7492 56.6559L88.8496 42.7737C88.8496 30.0785 77.6522 19.7871 63.8396 19.7871H63.5999C49.7866 19.7871 38.5898 30.0785 38.5898 42.7737L38.6902 56.6559C38.6902 56.6559 38.3388 57.2821 35.4155 57.2263C35.4155 57.2263 34.0985 57.3022 32.3486 56.3736C32.3486 56.3736 28.6479 54.2403 27.0611 57.4403C27.0611 57.4403 25.6393 60.4181 29.9166 62.1329C29.9166 62.1329 35.0987 63.8396 36.1559 64.5863C36.1559 64.5863 40.0693 66.6129 37.2138 71.6262C37.2138 71.6262 31.0818 83.6243 18.4399 87.1537C18.4399 87.1537 16.5965 87.5634 17.5728 89.0153C18.4814 90.5287 20.6875 92.674 25.9241 92.8791C25.9241 92.8791 29.9028 92.8515 30.128 95.4398L30.3665 98.0794C30.3665 98.0794 30.4556 100.409 33.5388 99.6788C33.5388 99.6788 42.0257 97.1998 47.2605 100.639C47.2605 100.639 47.9149 101.099 48.4903 101.579C48.4903 101.579 55.034 108.019 63.7787 108.019H63.662Z" fill="white" stroke="#1A1A1A" stroke-width="2.23058" stroke-linecap="round" stroke-linejoin="round"/>
</g>
<defs>
<clipPath id="clip0_12_668">
<rect width="128" height="128" fill="white"/>
</clipPath>
</defs>
</svg>
